<svg width="24" height="23" fill="none" xmlns="http://www.w3.org/2000/svg"><g clip-path="url(#a)" fill="#737373"><path d="M8 22.4a1.6 1.6 0 1 0 0-3.2 1.6 1.6 0 0 0 0 3.2ZM19.2 22.4a1.6 1.6 0 1 0 0-3.2 1.6 1.6 0 0 0 0 3.2ZM22.4 4H4.656L4 .64A.8.8 0 0 0 3.2 0H0v1.6h2.544L5.6 16.96a.8.8 0 0 0 .8.64h14.4V16H7.056L6.4 12.8h14.4a.8.8 0 0 0 .8-.624l1.6-7.2A.8.8 0 0 0 22.4 4Zm-2.24 7.2H6.096l-1.12-5.6H21.4l-1.24 5.6Z"/></g><defs><clipPath id="a"><path fill="#fff" d="M0 0h24v22.4H0z"/></clipPath></defs></svg>
