<svg width="16" height="11" viewBox="0 0 16 11" fill="none" xmlns="http://www.w3.org/2000/svg">
<path fill-rule="evenodd" clip-rule="evenodd" d="M15.7957 0.204347C15.8604 0.268958 15.9118 0.345714 15.9469 0.430218C15.9819 0.514722 16 0.605313 16 0.696803C16 0.788294 15.9819 0.878885 15.9469 0.963389C15.9118 1.04789 15.8604 1.12465 15.7957 1.18926L6.05781 10.9271C5.9932 10.9919 5.91645 11.0433 5.83194 11.0783C5.74744 11.1134 5.65685 11.1314 5.56536 11.1314C5.47387 11.1314 5.38328 11.1134 5.29877 11.0783C5.21427 11.0433 5.13751 10.9919 5.0729 10.9271L0.203982 6.05818C0.0733744 5.92757 0 5.75043 0 5.56572C0 5.38102 0.0733744 5.20387 0.203982 5.07327C0.33459 4.94266 0.511732 4.86928 0.696438 4.86928C0.881145 4.86928 1.05829 4.94266 1.1889 5.07327L5.56536 9.45112L14.8107 0.204347C14.8754 0.139572 14.9521 0.08818 15.0366 0.0531148C15.1211 0.0180496 15.2117 0 15.3032 0C15.3947 0 15.4853 0.0180496 15.5698 0.0531148C15.6543 0.08818 15.731 0.139572 15.7957 0.204347Z" fill="white"/>
</svg>
