<svg width="23" height="23" fill="none" xmlns="http://www.w3.org/2000/svg"><path d="m6.532 13.138-1.367 5.918a.915.915 0 0 0 1.403.97l4.994-3.33 4.994 3.33a.918.918 0 0 0 1.392-1.015l-1.678-5.87 4.16-3.745a.918.918 0 0 0-.54-1.596l-5.23-.416-2.262-5.01a.915.915 0 0 0-1.672 0l-2.262 5.01-5.23.415a.917.917 0 0 0-.567 1.572l3.865 3.767ZM9.149 9.17a.915.915 0 0 0 .763-.538l1.65-3.651 1.65 3.651a.916.916 0 0 0 .763.538l3.644.289-3 2.7a.919.919 0 0 0-.27.934l1.15 4.022-3.427-2.285a.912.912 0 0 0-1.017 0l-3.581 2.388.963-4.17a.917.917 0 0 0-.253-.862L5.397 9.469l3.752-.3Z" fill="#F3CD03"/></svg>
