<svg width="23" height="20" viewBox="0 0 23 20" fill="none" xmlns="http://www.w3.org/2000/svg">
<path d="M9.83333 10C12.4117 10 14.5 7.91167 14.5 5.33333C14.5 2.755 12.4117 0.666668 9.83333 0.666668C7.255 0.666668 5.16667 2.755 5.16667 5.33333C5.16667 7.91167 7.255 10 9.83333 10ZM9.83333 3C11.1167 3 12.1667 4.05 12.1667 5.33333C12.1667 6.61667 11.1167 7.66667 9.83333 7.66667C8.55 7.66667 7.5 6.61667 7.5 5.33333C7.5 4.05 8.55 3 9.83333 3ZM2.83333 17C3.06667 16.265 5.83167 15.04 8.62 14.7367L11 12.4033C10.545 12.3567 10.2067 12.3333 9.83333 12.3333C6.71833 12.3333 0.5 13.8967 0.5 17V19.3333H11L8.66667 17H2.83333ZM21.0333 10.5833L15.0483 16.615L12.6333 14.1883L11 15.8333L15.0483 19.9167L22.6667 12.2283L21.0333 10.5833Z" fill="#737373"/>
</svg>
