<svg width="49" height="38" fill="none" xmlns="http://www.w3.org/2000/svg"><path fill-rule="evenodd" clip-rule="evenodd" d="M46.417 37.667s3.083 0 3.083-3.111S46.417 22.11 34.084 22.11c-12.334 0-15.417 9.334-15.417 12.445 0 3.11 3.083 3.11 3.083 3.11h24.667Zm-24.599-3.111H46.35a.894.894 0 0 0 .043-.007l.025-.006c-.006-.821-.515-3.204-2.343-5.351-1.702-2.013-4.693-3.97-9.99-3.97-5.294 0-8.285 1.96-9.99 3.97-1.829 2.147-2.34 4.533-2.344 5.351l.068.013Zm12.266-18.667a6.138 6.138 0 0 0 4.36-1.822 6.25 6.25 0 0 0 1.806-4.4 6.25 6.25 0 0 0-1.806-4.4 6.139 6.139 0 0 0-4.36-1.823 6.139 6.139 0 0 0-4.36 1.823 6.25 6.25 0 0 0-1.807 4.4c0 1.65.65 3.233 1.806 4.4a6.139 6.139 0 0 0 4.36 1.822Zm9.25-6.222c0 1.225-.24 2.439-.705 3.571a9.34 9.34 0 0 1-2.005 3.028 9.247 9.247 0 0 1-3 2.024 9.18 9.18 0 0 1-7.08 0 9.248 9.248 0 0 1-3.001-2.024 9.34 9.34 0 0 1-2.005-3.028 9.405 9.405 0 0 1-.704-3.571c0-2.476.974-4.85 2.709-6.6a9.208 9.208 0 0 1 6.54-2.734c2.454 0 4.807.984 6.541 2.734a9.376 9.376 0 0 1 2.71 6.6ZM21.553 22.982a17.99 17.99 0 0 0-3.793-.768c-.723-.07-1.45-.104-2.176-.103C3.25 22.111.167 31.445.167 34.556c0 2.075 1.027 3.11 3.083 3.11h13a7.014 7.014 0 0 1-.666-3.11c0-3.143 1.162-6.353 3.36-9.035.75-.915 1.622-1.77 2.609-2.539Zm-6.216 2.24c-5.143.063-8.063 1.991-9.743 3.97-1.841 2.16-2.344 4.552-2.344 5.364h9.25c0-3.251.996-6.49 2.837-9.334Zm-10.545-14c0-2.475.975-4.85 2.71-6.6a9.208 9.208 0 0 1 6.54-2.733c2.453 0 4.806.983 6.54 2.734a9.376 9.376 0 0 1 2.71 6.6c0 2.475-.975 4.849-2.71 6.599a9.208 9.208 0 0 1-6.54 2.734 9.208 9.208 0 0 1-6.54-2.734 9.376 9.376 0 0 1-2.71-6.6ZM14.042 5a6.139 6.139 0 0 0-4.36 1.822 6.25 6.25 0 0 0-1.807 4.4c0 1.65.65 3.233 1.806 4.4a6.139 6.139 0 0 0 4.361 1.823 6.139 6.139 0 0 0 4.36-1.823 6.25 6.25 0 0 0 1.807-4.4 6.25 6.25 0 0 0-1.806-4.4A6.139 6.139 0 0 0 14.041 5Z" fill="#fff"/></svg>
