<svg width="48" height="38" viewBox="0 0 48 38" fill="none" xmlns="http://www.w3.org/2000/svg">
<path fill-rule="evenodd" clip-rule="evenodd" d="M45.917 37.6667C45.917 37.6667 49.0003 37.6667 49.0003 34.5556C49.0003 31.4445 45.917 22.1112 33.5837 22.1112C21.2503 22.1112 18.167 31.4445 18.167 34.5556C18.167 37.6667 21.2503 37.6667 21.2503 37.6667H45.917ZM21.3182 34.5556H45.8492C45.8636 34.5539 45.878 34.5518 45.8923 34.5494L45.917 34.5432C45.9108 33.7218 45.4021 31.3387 43.5737 29.192C41.8717 27.1791 38.8808 25.2223 33.5837 25.2223C28.2896 25.2223 25.2987 27.1823 23.5937 29.192C21.7652 31.3387 21.2534 33.7249 21.2503 34.5432C21.2729 34.5475 21.2955 34.5517 21.3182 34.5556ZM33.5837 15.8889C35.2192 15.8889 36.7877 15.2334 37.9441 14.0665C39.1006 12.8996 39.7503 11.3169 39.7503 9.66671C39.7503 8.01647 39.1006 6.43382 37.9441 5.26693C36.7877 4.10004 35.2192 3.44448 33.5837 3.44448C31.9482 3.44448 30.3796 4.10004 29.2232 5.26693C28.0667 6.43382 27.417 8.01647 27.417 9.66671C27.417 11.3169 28.0667 12.8996 29.2232 14.0665C30.3796 15.2334 31.9482 15.8889 33.5837 15.8889ZM42.8337 9.66671C42.8337 10.8924 42.5944 12.106 42.1295 13.2384C41.6647 14.3708 40.9833 15.3997 40.1244 16.2664C39.2655 17.133 38.2457 17.8205 37.1235 18.2896C36.0012 18.7586 34.7984 19 33.5837 19C32.3689 19 31.1661 18.7586 30.0438 18.2896C28.9216 17.8205 27.9019 17.133 27.0429 16.2664C26.184 15.3997 25.5026 14.3708 25.0378 13.2384C24.5729 12.106 24.3337 10.8924 24.3337 9.66671C24.3337 7.19135 25.3082 4.81738 27.0429 3.06704C28.7776 1.3167 31.1304 0.333374 33.5837 0.333374C36.0369 0.333374 38.3897 1.3167 40.1244 3.06704C41.8591 4.81738 42.8337 7.19135 42.8337 9.66671ZM21.053 22.9823C19.8196 22.5904 18.5482 22.3328 17.2605 22.2138C16.5369 22.1444 15.8105 22.1101 15.0837 22.1112C2.75033 22.1112 -0.333008 31.4445 -0.333008 34.5556C-0.333008 36.6307 0.693742 37.6667 2.75033 37.6667H15.7497C15.2926 36.6955 15.0646 35.6306 15.0837 34.5556C15.0837 31.4134 16.2461 28.2027 18.4445 25.5209C19.1937 24.6063 20.0663 23.7507 21.053 22.9823ZM14.837 25.2223C9.69399 25.2845 6.77408 27.2134 5.09366 29.192C3.25291 31.3512 2.75033 33.7436 2.75033 34.5556H12.0003C12.0003 31.3045 12.9962 28.0658 14.837 25.2223ZM4.29199 11.2223C4.29199 8.74691 5.26654 6.37294 7.00125 4.6226C8.73597 2.87226 11.0887 1.88893 13.542 1.88893C15.9952 1.88893 18.348 2.87226 20.0827 4.6226C21.8174 6.37294 22.792 8.74691 22.792 11.2223C22.792 13.6976 21.8174 16.0716 20.0827 17.8219C18.348 19.5723 15.9952 20.5556 13.542 20.5556C11.0887 20.5556 8.73597 19.5723 7.00125 17.8219C5.26654 16.0716 4.29199 13.6976 4.29199 11.2223ZM13.542 5.00004C11.9065 5.00004 10.338 5.65559 9.1815 6.82249C8.02503 7.98938 7.37533 9.57203 7.37533 11.2223C7.37533 12.8725 8.02503 14.4551 9.1815 15.622C10.338 16.7889 11.9065 17.4445 13.542 17.4445C15.1775 17.4445 16.746 16.7889 17.9025 15.622C19.059 14.4551 19.7087 12.8725 19.7087 11.2223C19.7087 9.57203 19.059 7.98938 17.9025 6.82249C16.746 5.65559 15.1775 5.00004 13.542 5.00004Z" fill="#23A6F0"/>
</svg>
